<svg width="56" height="50" viewBox="0 0 56 50" fill="none" xmlns="http://www.w3.org/2000/svg">
<path d="M14.3149 9.0105C14.7414 8.91356 15.2423 8.8939 15.8322 8.99223C16.377 9.08302 16.8922 8.71501 16.983 8.17024C17.0738 7.62547 16.7058 7.11024 16.161 7.01944C14.3923 6.72465 12.9859 7.1659 11.9494 7.96322C10.9425 8.73779 10.3446 9.79962 10.0479 10.6896C9.87329 11.2136 10.1564 11.7799 10.6804 11.9545C10.7971 11.9934 10.916 12.0096 11.0321 12.0055C11.0087 12.1689 10.9966 12.336 10.9966 12.5059C10.9966 14.4389 12.5636 16.0059 14.4966 16.0059C16.4296 16.0059 17.9966 14.4389 17.9966 12.5059C17.9966 10.5729 16.4296 9.00586 14.4966 9.00586C14.4357 9.00586 14.3751 9.00742 14.3149 9.0105Z" fill="#353535"/>
<path d="M44.9966 12.5059C44.9966 14.4389 43.4296 16.0059 41.4966 16.0059C39.5636 16.0059 37.9966 14.4389 37.9966 12.5059C37.9966 10.8991 39.0794 9.54515 40.5551 9.13396C39.8145 8.89931 39.012 8.85043 38.161 8.99226C37.6162 9.08305 37.101 8.71503 37.0102 8.17026C36.9194 7.62549 37.2874 7.11026 37.8322 7.01947C40.6254 6.55393 43.088 7.62775 44.7966 9.90585C45.0895 10.2963 45.0536 10.8312 44.7364 11.179C44.9041 11.5882 44.9966 12.0362 44.9966 12.5059Z" fill="#353535"/>
<path d="M41.7445 32.3421C42.1111 32.7551 42.0735 33.3872 41.6604 33.7538C38.5415 36.5218 33.0567 37.9387 27.814 38.0035C25.1658 38.0362 22.5128 37.7263 20.1659 37.0348C17.8282 36.346 15.7279 35.2585 14.2648 33.6873C13.8884 33.2832 13.911 32.6504 14.3151 32.274C14.7193 31.8977 15.3521 31.9202 15.7285 32.3244C16.8654 33.5453 18.6001 34.4884 20.7311 35.1163C22.853 35.7415 25.3024 36.0344 27.7893 36.0037C32.8165 35.9415 37.7318 34.5664 40.3328 32.2579C40.7459 31.8913 41.3779 31.929 41.7445 32.3421Z" fill="#353535"/>
<path d="M33.694 42.7226C34.0898 42.3374 34.0985 41.7043 33.7133 41.3085C33.3282 40.9127 32.695 40.904 32.2992 41.2892C30.8644 42.6853 29.2126 43.0994 27.6505 42.989C26.0581 42.8764 24.5723 42.2152 23.5974 41.4825C23.1559 41.1507 22.529 41.2397 22.1972 41.6812C21.8654 42.1227 21.9543 42.7496 22.3958 43.0814C23.6432 44.0188 25.4907 44.8413 27.5094 44.984C29.5585 45.1289 31.7955 44.5699 33.694 42.7226Z" fill="#353535"/>
<path fill-rule="evenodd" clip-rule="evenodd" d="M33.5201 6.01144C36.4194 0.65178 42.606 -1.65995 47.4127 1.30188C52.1639 4.22954 53.3843 10.9981 50.4951 16.3389C50.2111 16.864 49.8967 17.359 49.5561 17.8221C54.764 21.5068 57.1166 28.5223 55.4837 35.4262C53.5988 43.3951 46.9944 46.5225 40.0175 48.62C36.4084 49.705 31.7809 50.0705 27.407 49.9967C23.0282 49.9228 18.8034 49.4066 15.9756 48.6724C10.466 47.2419 5.10235 45.2025 2.05487 39.1708C-1.69676 31.7453 -0.315186 22.2144 6.23146 17.6795C5.93043 17.2577 5.65092 16.8104 5.39585 16.3389C2.50667 10.9981 3.72703 4.22954 8.47826 1.30188C13.285 -1.65995 19.4715 0.65178 22.3709 6.01144C22.8296 6.85951 23.1839 7.73898 23.4374 8.63018C24.8906 8.3099 26.3991 8.14132 27.9455 8.14132C29.4919 8.14132 31.0003 8.3099 32.4535 8.63018C32.707 7.73898 33.0613 6.85951 33.5201 6.01144ZM46.3635 3.00459C42.7667 0.788266 37.7707 2.35733 35.2792 6.96304C34.7436 7.95311 34.3772 8.99198 34.1705 10.0355L33.962 11.0888L32.9262 10.806C31.3394 10.3727 29.6699 10.1413 27.9455 10.1413C26.2211 10.1413 24.5516 10.3727 22.9648 10.806L21.929 11.0888L21.7204 10.0355C21.5138 8.99198 21.1473 7.95311 20.6118 6.96304C18.1203 2.35733 13.1243 0.788266 9.52745 3.00459C5.87516 5.25509 4.65327 10.7628 7.15496 15.3873C7.53336 16.0868 7.97249 16.7182 8.45729 17.2774L9.25242 18.1946L8.19996 18.7994C8.12652 18.8417 8.05334 18.8848 7.98042 18.9288C1.94928 22.5685 0.295003 31.2525 3.83997 38.2688C6.47353 43.4813 11.0714 45.3328 16.4782 46.7366C19.1086 47.4195 23.1669 47.9249 27.4407 47.997C31.7195 48.0692 36.1142 47.7051 39.4417 46.7047C46.3381 44.6313 51.923 41.7911 53.5374 34.9658C55.1003 28.3578 52.5771 21.8714 47.5716 18.918L46.5223 18.2989L47.3341 17.3905C47.8585 16.8037 48.3319 16.1344 48.736 15.3873C51.2377 10.7628 50.0158 5.25509 46.3635 3.00459Z" fill="#353535"/>
</svg>
