<svg width="24" height="12" viewBox="0 0 24 12" fill="none" xmlns="http://www.w3.org/2000/svg">
<path d="M8.985 11L8.01 10.055C7.04 10.795 5.88 11.165 4.53 11.165C3.72 11.165 3.015 11.035 2.415 10.775C1.815 10.505 1.35 10.13 1.02 9.65C0.7 9.16 0.54 8.59 0.54 7.94C0.54 7.28 0.715 6.685 1.065 6.155C1.425 5.615 1.96 5.175 2.67 4.835C2.41 4.515 2.225 4.21 2.115 3.92C2.005 3.62 1.95 3.295 1.95 2.945C1.95 2.445 2.08 1.99 2.34 1.58C2.6 1.17 2.975 0.85 3.465 0.62C3.965 0.38 4.555 0.26 5.235 0.26C5.925 0.26 6.51 0.385 6.99 0.634999C7.47 0.885 7.83 1.22 8.07 1.64C8.31 2.06 8.42 2.52 8.4 3.02H5.985C5.995 2.75 5.925 2.545 5.775 2.405C5.635 2.255 5.445 2.18 5.205 2.18C4.965 2.18 4.765 2.25 4.605 2.39C4.445 2.53 4.365 2.71 4.365 2.93C4.365 3.14 4.43 3.36 4.56 3.59C4.7 3.82 4.915 4.085 5.205 4.385L7.77 6.89C7.79 6.84 7.815 6.78 7.845 6.71C7.885 6.64 7.925 6.56 7.965 6.47L8.52 5.525H11.085L10.365 6.83C10.095 7.42 9.785 7.98 9.435 8.51L11.97 11H8.985ZM4.65 9.095C5.32 9.095 5.915 8.905 6.435 8.525L4.095 6.26C3.375 6.63 3.015 7.13 3.015 7.76C3.015 8.14 3.16 8.46 3.45 8.72C3.75 8.97 4.15 9.095 4.65 9.095ZM20.9528 11L19.9778 10.055C19.0078 10.795 17.8478 11.165 16.4978 11.165C15.6878 11.165 14.9828 11.035 14.3828 10.775C13.7828 10.505 13.3178 10.13 12.9878 9.65C12.6678 9.16 12.5078 8.59 12.5078 7.94C12.5078 7.28 12.6828 6.685 13.0328 6.155C13.3928 5.615 13.9278 5.175 14.6378 4.835C14.3778 4.515 14.1928 4.21 14.0828 3.92C13.9728 3.62 13.9178 3.295 13.9178 2.945C13.9178 2.445 14.0478 1.99 14.3078 1.58C14.5678 1.17 14.9428 0.85 15.4328 0.62C15.9328 0.38 16.5228 0.26 17.2028 0.26C17.8928 0.26 18.4778 0.385 18.9578 0.634999C19.4378 0.885 19.7978 1.22 20.0378 1.64C20.2778 2.06 20.3878 2.52 20.3678 3.02H17.9528C17.9628 2.75 17.8928 2.545 17.7428 2.405C17.6028 2.255 17.4128 2.18 17.1728 2.18C16.9328 2.18 16.7328 2.25 16.5728 2.39C16.4128 2.53 16.3328 2.71 16.3328 2.93C16.3328 3.14 16.3978 3.36 16.5278 3.59C16.6678 3.82 16.8828 4.085 17.1728 4.385L19.7378 6.89C19.7578 6.84 19.7828 6.78 19.8128 6.71C19.8528 6.64 19.8928 6.56 19.9328 6.47L20.4878 5.525H23.0528L22.3328 6.83C22.0628 7.42 21.7528 7.98 21.4028 8.51L23.9378 11H20.9528ZM16.6178 9.095C17.2878 9.095 17.8828 8.905 18.4028 8.525L16.0628 6.26C15.3428 6.63 14.9828 7.13 14.9828 7.76C14.9828 8.14 15.1278 8.46 15.4178 8.72C15.7178 8.97 16.1178 9.095 16.6178 9.095Z" fill="black"/>
</svg>
